<svg id="Layer_1" data-name="Layer 1" xmlns="http://www.w3.org/2000/svg" xmlns:xlink="http://www.w3.org/1999/xlink" viewBox="0 0 650.68 500.37" width="406" height="306" class="illustration styles_illustrationTablet__1DWOa"><defs><linearGradient id="linear-gradient" x1="181.95" y1="312.39" x2="203.74" y2="312.39" gradientUnits="userSpaceOnUse"><stop offset="0" stop-color="#fff" stop-opacity="0"></stop><stop offset="0.95" stop-color="#fff"></stop></linearGradient><linearGradient id="linear-gradient-2" x1="390.43" y1="169.43" x2="419.35" y2="169.43" gradientUnits="userSpaceOnUse"><stop offset="0" stop-color="#e5c6d6"></stop><stop offset="0.42" stop-color="#ead4d0"></stop><stop offset="1" stop-color="#f0e9cb"></stop></linearGradient><linearGradient id="linear-gradient-3" x1="376.15" y1="159.22" x2="417.48" y2="159.22" gradientUnits="userSpaceOnUse"><stop offset="0" stop-color="#010101" stop-opacity="0"></stop><stop offset="0.95" stop-color="#010101"></stop></linearGradient><linearGradient id="linear-gradient-4" x1="436.27" y1="299.82" x2="391.37" y2="252.6" xlink:href="#linear-gradient-3"></linearGradient><linearGradient id="linear-gradient-5" x1="449.92" y1="323.32" x2="450.66" y2="263.04" xlink:href="#linear-gradient"></linearGradient><linearGradient id="linear-gradient-6" x1="376.14" y1="334.08" x2="413.05" y2="334.08" xlink:href="#linear-gradient"></linearGradient><linearGradient id="linear-gradient-7" x1="404.57" y1="180.58" x2="436.96" y2="180.58" xlink:href="#linear-gradient-3"></linearGradient><linearGradient id="linear-gradient-8" x1="429.18" y1="162.85" x2="445.59" y2="162.85" xlink:href="#linear-gradient-2"></linearGradient><linearGradient id="linear-gradient-9" x1="404.91" y1="153.45" x2="405.6" y2="159.65" xlink:href="#linear-gradient-3"></linearGradient><linearGradient id="linear-gradient-10" x1="421.93" y1="152.41" x2="422.07" y2="162.75" xlink:href="#linear-gradient-3"></linearGradient><linearGradient id="linear-gradient-11" x1="462.8" y1="148.7" x2="463.21" y2="180.96" xlink:href="#linear-gradient-3"></linearGradient><linearGradient id="linear-gradient-12" x1="316.2" y1="370.32" x2="323.55" y2="554.84" xlink:href="#linear-gradient-3"></linearGradient><linearGradient id="linear-gradient-13" x1="162.19" y1="361.52" x2="178.37" y2="296.83" xlink:href="#linear-gradient"></linearGradient><linearGradient id="linear-gradient-14" x1="154.94" y1="284.53" x2="177.97" y2="284.53" xlink:href="#linear-gradient-3"></linearGradient><linearGradient id="linear-gradient-15" x1="149.72" y1="306.89" x2="121.78" y2="294.03" xlink:href="#linear-gradient"></linearGradient><linearGradient id="linear-gradient-16" x1="450.84" y1="158.74" x2="472.7" y2="158.74" xlink:href="#linear-gradient-2"></linearGradient><linearGradient id="linear-gradient-17" x1="429.52" y1="239.99" x2="349.39" y2="158.39" xlink:href="#linear-gradient"></linearGradient><linearGradient id="linear-gradient-18" x1="396.8" y1="206.09" x2="366.84" y2="135.34" xlink:href="#linear-gradient-3"></linearGradient><linearGradient id="linear-gradient-19" x1="385.48" y1="200.29" x2="380.24" y2="180.16" xlink:href="#linear-gradient"></linearGradient><linearGradient id="linear-gradient-20" x1="312.43" y1="303.52" x2="343.3" y2="843.85" xlink:href="#linear-gradient-3"></linearGradient><linearGradient id="linear-gradient-21" x1="209.85" y1="270.02" x2="211.5" y2="279.76" xlink:href="#linear-gradient-3"></linearGradient><linearGradient id="linear-gradient-22" x1="180.62" y1="268.04" x2="181.4" y2="272.64" xlink:href="#linear-gradient-3"></linearGradient><linearGradient id="linear-gradient-23" x1="182.46" y1="313.03" x2="69.56" y2="409.48" xlink:href="#linear-gradient-3"></linearGradient></defs><title>Adventure 2</title><path d="M666,340.69a202.1,202.1,0,0,1-3.83,22.05c-2.94,12.49-7.48,24.51-14.61,35-.75,1.1-1.53,2.19-2.35,3.25C624,429,586.85,439.11,552,443.22c-57.26,6.77-115.18,2.11-172.83,2.9-92.51,1.21-185.52,16.41-277.13,3.25C78.27,446,50.82,437.3,35.5,417.45a55.7,55.7,0,0,1-5.95-9.64c-6.85-14.06-10.42-31.25-11.75-49a267.11,267.11,0,0,1,4.35-68.38c8.15-41.59,29.61-81.07,62.47-107.86,26.82-21.89,60.7-35.28,83.06-61.68,23-27.14,31.61-65.52,58.94-88.28,14.06-11.74,31.8-18.13,49.51-22.83,33.44-8.89,68.69-12.65,102.8-7s67.21,21.31,90.55,46.88c32.23,35.21,45.19,87.41,84.75,114.16,18.45,12.46,40.93,17.9,59.65,30,23,14.88,38.93,39.2,46.88,65.41S669.25,313.47,666,340.69Z" transform="translate(-17.19 -0.09)" fill="#68e1fd" opacity="0.24" style="isolation: isolate;"></path><path d="M203.55,335.48c.2.7.37,1.58-.17,2.06a2,2,0,0,1-1.54.29A136.86,136.86,0,0,1,184.42,335a2.47,2.47,0,0,1-2.39-2.93,202.74,202.74,0,0,1,1.11-27.44c.55-5.05,1.26-12.82,5.6-16.26,5.29-4.18,6.95,1.74,7.45,6.07C197.78,308.38,199.61,322,203.55,335.48Z" transform="translate(-17.19 -0.09)" fill="#68e1fd"></path><path d="M203.55,335.48c.2.7.37,1.58-.17,2.06a2,2,0,0,1-1.54.29A136.86,136.86,0,0,1,184.42,335a2.47,2.47,0,0,1-2.39-2.93,202.74,202.74,0,0,1,1.11-27.44c.55-5.05,1.26-12.82,5.6-16.26,5.29-4.18,6.95,1.74,7.45,6.07C197.78,308.38,199.61,322,203.55,335.48Z" transform="translate(-17.19 -0.09)" fill="url(#linear-gradient)"></path><path d="M413.59,155.1c-2.42-2.08-5.09-4.26-8.28-4.49-3-.21-5.95,1.45-8,3.7a30.12,30.12,0,0,0-4.61,7.82,22.42,22.42,0,0,0-2.19,6.41c-.44,3.36.66,6.72.94,10.1.15,1.88.06,3.84.85,5.55a7.24,7.24,0,0,0,4.92,3.79,13,13,0,0,0,6.35-.26,3.93,3.93,0,0,0,2-1c1.24-1.35.37-3.54.84-5.31a5.65,5.65,0,0,1,3.29-3.31,28.32,28.32,0,0,0,4.34-2.07,7.07,7.07,0,0,0,2.83-4.33c.34-1.7.07-3.58.91-5.1.34-.62.85-1.14,1.2-1.76a2,2,0,0,0,.16-2,3.19,3.19,0,0,0-1-.87,8,8,0,0,1-3.18-4.8A3.15,3.15,0,0,0,413.59,155.1Z" transform="translate(-17.19 -0.09)" fill="url(#linear-gradient-2)"></path><path d="M401.83,171.67a12.58,12.58,0,0,1-4.1-3.29,3.84,3.84,0,0,0-.15,5.19,2.69,2.69,0,0,1,.63.8,2.11,2.11,0,0,1,.1.66l.19,6.73c0,.88-.25,2.09-1.14,2.06a1.73,1.73,0,0,1-.89-.41,9.36,9.36,0,0,0-4.74-1.6,5.13,5.13,0,0,1-1.66-.23,4,4,0,0,1-1.27-1l-2.8-2.91a3.39,3.39,0,0,1-.88-1.25,3.43,3.43,0,0,1,0-1.53l1-6.9a15,15,0,0,1,.95-4.05,10.11,10.11,0,0,1,2-2.77c1.92-2,4.62-3.47,7.35-3.07a5.33,5.33,0,0,1,4.53,5.2A29,29,0,0,0,401.83,171.67Z" transform="translate(-17.19 -0.09)" fill="#606161"></path><path d="M392.23,139.65c-4.34-.08-9.1,0-12.43,2.77-3.84,3.22-4.38,9.1-2.88,13.88,1.16,3.68,3.35,7.27,2.85,11.1-.36,2.77-2.11,5.54-1.17,8.17.82,2.3,3.55,3.49,6,3.21a12.07,12.07,0,0,0,6.38-3.36c5.39-4.79,9.16-11.59,15.61-14.83,4.73-2.39,15.48-6.68,8.77-13.37C409.35,141.24,400.23,139.79,392.23,139.65Z" transform="translate(-17.19 -0.09)" fill="#68e1fd"></path><path d="M392.23,139.65c-4.34-.08-9.1,0-12.43,2.77-3.84,3.22-4.38,9.1-2.88,13.88,1.16,3.68,3.35,7.27,2.85,11.1-.36,2.77-2.11,5.54-1.17,8.17.82,2.3,3.55,3.49,6,3.21a12.07,12.07,0,0,0,6.38-3.36c5.39-4.79,9.16-11.59,15.61-14.83,4.73-2.39,15.48-6.68,8.77-13.37C409.35,141.24,400.23,139.79,392.23,139.65Z" transform="translate(-17.19 -0.09)" fill="url(#linear-gradient-3)"></path><path d="M443.93,240.54a6.27,6.27,0,0,1,3.76.84,5.24,5.24,0,0,1,1.66,2.75c1.31,4.26.71,8.85,0,13.25-1.06,6.56-.13,17.12-1.6,23.59-.48,2.11-3.28.33-5,1.69-2.4,1.93-5.93,1.24-8.85,2.21l-1-23.21c0-.73-.15-1.6-.8-1.92a1.92,1.92,0,0,0-1.09-.11,65,65,0,0,0-12.23,2.23c-2.89.82-5.83,1.9-7.95,4-3.85,3.88-4,10-4.39,15.41a81.25,81.25,0,0,1-10.69,34.33,59,59,0,0,1-12.91-1.46c-.07-2.15,1.13-4.1,1.9-6.11,1.34-3.47,1.4-7.28,1.27-11-.28-8.26-1.44-16.5-1.25-24.77s1.83-16.78,6.59-23.54c5-7.07,13.89-11.77,22.57-10C423.86,240.77,433.82,240.41,443.93,240.54Z" transform="translate(-17.19 -0.09)" fill="#606161"></path><path d="M443.93,240.54a6.27,6.27,0,0,1,3.76.84,5.24,5.24,0,0,1,1.66,2.75c1.31,4.26.71,8.85,0,13.25-1.06,6.56-.31,18.4-1.79,24.87-.48,2.11-3.09-.95-4.78.41-2.4,1.93-5.93,1.24-8.85,2.21l-1-23.21c0-.73-.15-1.6-.8-1.92a1.92,1.92,0,0,0-1.09-.11,65,65,0,0,0-12.23,2.23c-2.89.82-5.83,1.9-7.95,4-3.85,3.88-4,10-4.39,15.41a81.25,81.25,0,0,1-10.69,34.33,59,59,0,0,1-12.91-1.46c-.07-2.15,1.13-4.1,1.9-6.11,1.34-3.47,1.4-7.28,1.27-11-.28-8.26-1.44-16.5-1.25-24.77s1.83-16.78,6.59-23.54c5-7.07,13.89-11.77,22.57-10C423.86,240.77,433.82,240.41,443.93,240.54Z" transform="translate(-17.19 -0.09)" fill="url(#linear-gradient-4)"></path><path d="M449,278.84a2.86,2.86,0,0,1,1.37.14c.85.39,1.11,1.45,1.27,2.37a179.14,179.14,0,0,1,2.42,26.46,54,54,0,0,1,5.65-4.6,6.55,6.55,0,0,1,2.88-1.36,4.67,4.67,0,0,1,3.75,1.51,12.81,12.81,0,0,1,2.25,3.52,3.67,3.67,0,0,1,.53,2.61A3.62,3.62,0,0,1,468,311a84.11,84.11,0,0,1-27.45,16.65c-1.08-4.49-.12-9.21-.47-13.81-.52-6.88-3.85-13.09-6.28-19.42-1.1-2.89-2.45-6.22-2.45-9.37,0-2.77,1.72-3.76,4.21-4.33A80.7,80.7,0,0,1,449,278.84Z" transform="translate(-17.19 -0.09)" fill="#68e1fd"></path><path d="M399.15,311.15a69.29,69.29,0,0,1,.72,26.38c-.39,2.35-.68,5.26,1.28,6.61,1.43,1,3.35.57,5.08.72a7.77,7.77,0,0,1,6.74,8.62,2.61,2.61,0,0,1-.79,1.67,3,3,0,0,1-1.73.52q-15.15,1.47-30.39,1.81c-.93,0-2-.05-2.5-.83a2.62,2.62,0,0,1-.28-1.33c-.44-11.93-2-25-.52-36.84C378.07,307.94,391.54,311.11,399.15,311.15Z" transform="translate(-17.19 -0.09)" fill="#68e1fd"></path><path d="M449,278.84a2.86,2.86,0,0,1,1.37.14c.85.39,1.11,1.45,1.27,2.37a179.14,179.14,0,0,1,2.42,26.46,54,54,0,0,1,5.65-4.6,6.55,6.55,0,0,1,2.88-1.36,4.67,4.67,0,0,1,3.75,1.51,12.81,12.81,0,0,1,2.25,3.52,3.67,3.67,0,0,1,.53,2.61A3.62,3.62,0,0,1,468,311a84.11,84.11,0,0,1-27.45,16.65c-1.08-4.49-.12-9.21-.47-13.81-.52-6.88-3.85-13.09-6.28-19.42-1.1-2.89-2.45-6.22-2.45-9.37,0-2.77,1.72-3.76,4.21-4.33A80.7,80.7,0,0,1,449,278.84Z" transform="translate(-17.19 -0.09)" fill="url(#linear-gradient-5)"></path><path d="M399.15,311.15a69.29,69.29,0,0,1,.72,26.38c-.39,2.35-.68,5.26,1.28,6.61,1.43,1,3.35.57,5.08.72a7.77,7.77,0,0,1,6.74,8.62,2.61,2.61,0,0,1-.79,1.67,3,3,0,0,1-1.73.52q-15.15,1.47-30.39,1.81c-.93,0-2-.05-2.5-.83a2.62,2.62,0,0,1-.28-1.33c-.44-11.93-2-25-.52-36.84C378.07,307.94,391.54,311.11,399.15,311.15Z" transform="translate(-17.19 -0.09)" fill="url(#linear-gradient-6)"></path><path d="M418.72,178.52c3.44-2.81,5.8-6.72,7.68-10.75a42.76,42.76,0,0,1,9.6,6.54,2.11,2.11,0,0,1,.74,2.77,24,24,0,0,1-20.89,16.27c-3.28.19-6.82-.42-9.19-2.7-2.06-2-3.38-7.33-.09-8.75,1.43-.62,4.54.22,6.33-.29A16.5,16.5,0,0,0,418.72,178.52Z" transform="translate(-17.19 -0.09)" fill="#68e1fd"></path><path d="M418.72,178.52c3.44-2.81,5.8-6.72,7.68-10.75a42.76,42.76,0,0,1,9.6,6.54,2.11,2.11,0,0,1,.74,2.77,24,24,0,0,1-20.89,16.27c-3.28.19-6.82-.42-9.19-2.7-2.06-2-3.38-7.33-.09-8.75,1.43-.62,4.54.22,6.33-.29A16.5,16.5,0,0,0,418.72,178.52Z" transform="translate(-17.19 -0.09)" fill="url(#linear-gradient-7)"></path><path d="M430,158.56c.07-2,.21-4.21,1.63-5.63s3.53-1.57,5.49-1.67l4.51-.24a4.11,4.11,0,0,1,2.44.38c1,.64,1.22,2,1.37,3.12.22,1.81.42,3.75-.43,5.37a11.79,11.79,0,0,1-2.84,3A20.56,20.56,0,0,0,438,168c-1.08,1.91-1.9,4-3.48,5.55A3.58,3.58,0,0,1,432,174.7a3.22,3.22,0,0,1-2.73-2.73c-.39-2,.39-4.33.45-6.38C429.81,163.25,429.89,160.91,430,158.56Z" transform="translate(-17.19 -0.09)" fill="url(#linear-gradient-8)"></path><rect x="398.79" y="153.27" width="12.65" height="4.02" fill="#68e1fd"></rect><rect x="398.79" y="153.27" width="12.65" height="4.02" fill="url(#linear-gradient-9)"></rect><rect x="410.62" y="150.21" width="22.7" height="8.91" fill="#68e1fd"></rect><rect x="433.18" y="147.36" width="59.45" height="15.71" fill="#68e1fd"></rect><rect x="410.62" y="150.21" width="22.7" height="8.91" fill="url(#linear-gradient-10)"></rect><polyline points="433.15 147.36 492.61 147.36 492.61 163.08 433.15 163.08" fill="url(#linear-gradient-11)"></polyline><path d="M516.64,249.59c-10.55-1.83-19.67,8-23.51,18s-4.84,21.2-10.7,30.15c-5.68,8.68-15.13,14-24.21,19-15,8.29-30.31,16.68-47,20.61-13.16,3.1-26.85,2.44-40.34,3.34-160.56,10.69-220.7-10-269-41.33a504.07,504.07,0,0,0,25.49,64c6.12,12.73,12.95,25.45,23.18,35.2,11.65,11.11,26.95,17.59,42.38,22.22,59.87,17.95,124,10.83,186.1,3.54,19-2.22,38.2-4.51,56-11.43,35.17-13.65,62.2-45.49,72.09-81.89,3.18-11.72,4.71-23.82,6.22-35.87C515.19,280.08,514.75,264.61,516.64,249.59Z" transform="translate(-17.19 -0.09)" fill="#68e1fd"></path><path d="M516.63,249.59c-1.88,15-1.45,30.47-3.33,45.51-.31,2.59-.66,5.17-1,7.75A214.86,214.86,0,0,1,507.08,331,126.29,126.29,0,0,1,478,383.26a115.91,115.91,0,0,1-43,29.61c-17.82,6.93-37,9.2-56,11.43-62.07,7.29-126.22,14.41-186.11-3.56-15.43-4.62-30.7-11.09-42.37-22.21-1.45-1.41-2.86-2.86-4.15-4.38-8-9-13.79-19.9-19-30.83-6.81-14.21-9.67-20.09-13-29.45,0,0,0,0,0,0-1.52-4.27-3.17-9.28-5.36-16.09,48.33,31.29,197.19,34.15,231.57,34.19,13.52,0,57.61-11.48,70.77-14.61,16.73-3.92,32-12.3,47-20.6,9.05-5,18.52-10.34,24.2-19,5.84-8.93,6.86-20.14,10.69-30.12S506.1,247.75,516.63,249.59Z" transform="translate(-17.19 -0.09)" fill="url(#linear-gradient-12)"></path><path d="M152.24,276.73c3.85-8.1,9.18-16,17.2-20,5.74-2.87,12.38-3.47,18.79-3.07,5.49.35,11.56,1.79,14.56,6.41,2.17,3.36,2.35,7.91,5.18,10.74,2.23,2.23,5.84,3.07,7.31,5.86,1.79,3.4-.89,7.71-4.38,9.29s-7.5,1.34-11.33,1.57c-1.64.1-3.44.39-4.46,1.67a6.22,6.22,0,0,0-1,3.71l-1.88,36.22a7.79,7.79,0,0,1-1.08,4.32c-1.84,2.47-5.63,1.92-8.6,1.11l-29.72-8.08c-3.09-.84-6.29-1.74-8.72-3.82-5.21-4.47-1.15-14.16-.14-20A100.32,100.32,0,0,1,152.24,276.73Z" transform="translate(-17.19 -0.09)" fill="#68e1fd"></path><path d="M157.75,278.81c-2.11,7.28-4.11,15.56-.22,22.07a3.49,3.49,0,0,0,1.43,1.49,3.21,3.21,0,0,0,1.94.09,10.67,10.67,0,0,0,6.56-4.75,21.13,21.13,0,0,0,2.86-7.76c1.28-6.61,1-13.46,2.5-20,.77-3.46,2.32-7.13,5.52-8.65a12.59,12.59,0,0,0-9.59,3.9c-2.44,2.67-4.18,5.89-6.24,8.85C160.87,276.38,158.54,276.06,157.75,278.81Z" transform="translate(-17.19 -0.09)" fill="#68e1fd"></path><path d="M137.77,292.9c-.54-3.89-1.14-8.06-3.83-10.9a9.66,9.66,0,0,0-10.23-2.27,10.1,10.1,0,0,0-6.26,8.47,3.24,3.24,0,0,0,.13,1.42c.4,1,1.57,1.48,2.45,2.15,2.74,2.06,2.67,6.08,3.42,9.42.84,3.71,2.93,7,5,10.16,2.45,3.66,5.46,7.56,9.8,8.25,6.42,1,3.42-5.21,2.53-8.33C139.17,305.39,138.6,298.93,137.77,292.9Z" transform="translate(-17.19 -0.09)" fill="#68e1fd"></path><path d="M152.24,276.73c3.85-8.1,9.18-16,17.2-20,5.74-2.87,12.38-3.47,18.79-3.07,5.49.35,11.56,1.79,14.56,6.41,2.17,3.36,2.35,7.91,5.18,10.74,2.23,2.23,5.84,3.07,7.31,5.86,1.79,3.4-.89,7.71-4.38,9.29s-7.5,1.34-11.33,1.57c-1.64.1-3.44.39-4.46,1.67a6.22,6.22,0,0,0-1,3.71l-1.88,36.22a7.79,7.79,0,0,1-1.08,4.32c-1.84,2.47-5.63,1.92-8.6,1.11l-29.72-8.08c-3.09-.84-6.29-1.74-8.72-3.82-5.21-4.47-1.15-14.16-.14-20A100.32,100.32,0,0,1,152.24,276.73Z" transform="translate(-17.19 -0.09)" fill="url(#linear-gradient-13)"></path><path d="M157.37,281.42c-2.1,7.29-4.1,15.57-.21,22.08a3.36,3.36,0,0,0,1.43,1.48,3.2,3.2,0,0,0,1.94.09,10.65,10.65,0,0,0,6.56-4.75,21.51,21.51,0,0,0,2.86-7.75c1.28-6.61,1-13.47,2.49-20,.78-3.46,2.32-7.13,5.53-8.65a12.57,12.57,0,0,0-9.59,3.91c-2.44,2.66-4.18,5.88-6.25,8.85C160.5,279,158.17,278.67,157.37,281.42Z" transform="translate(-17.19 -0.09)" fill="url(#linear-gradient-14)"></path><path d="M155.57,278.5c-3.06,6.94-6.13,14.88-3.15,21.85a3.53,3.53,0,0,0,1.22,1.66,3.22,3.22,0,0,0,1.91.35,10.67,10.67,0,0,0,7.14-3.84,21.23,21.23,0,0,0,3.86-7.31c2.15-6.38,2.8-13.21,5.13-19.52,1.23-3.33,3.25-6.76,6.63-7.84a12.59,12.59,0,0,0-10,2.59c-2.77,2.32-4.92,5.28-7.36,7.95C159,276.5,156.72,275.87,155.57,278.5Z" transform="translate(-17.19 -0.09)" fill="#fff"></path><path d="M137.77,292.9c-.54-3.89-1.14-8.06-3.83-10.9a9.66,9.66,0,0,0-10.23-2.27,10.1,10.1,0,0,0-6.26,8.47,3.24,3.24,0,0,0,.13,1.42c.4,1,1.57,1.48,2.45,2.15,2.74,2.06,2.67,6.08,3.42,9.42.84,3.71,2.93,7,5,10.16,2.45,3.66,5.46,7.56,9.8,8.25,6.42,1,3.42-5.21,2.53-8.33C139.17,305.39,138.6,298.93,137.77,292.9Z" transform="translate(-17.19 -0.09)" fill="url(#linear-gradient-15)"></path><path d="M454.83,151.63c.78-.21,1.58.34,2.4.34,1.86,0,2.52-2.47,3.95-3.67a5.31,5.31,0,0,1,4.18-.83c1.45.22,2.86.71,4.32.79a4.74,4.74,0,0,1,1.69.23c1.44.63,1.44,2.64,1.22,4.19-.42,2.85-.9,5.85-2.73,8.07-2.27,2.77-6.28,3.87-8,7a6.45,6.45,0,0,1-1.1,1.73,3.51,3.51,0,0,1-3.31.4c-3.17-.89-7-4.39-6.53-8,.29-2,1.82-3.61,2.31-5.54C453.52,155.05,453.14,152.09,454.83,151.63Z" transform="translate(-17.19 -0.09)" fill="url(#linear-gradient-16)"></path><path d="M448.09,161.41c1.29,2.65,3.51,4.71,5.68,6.71l7.47,6.87c-6,5.34-11,11.84-17.23,16.93-8,6.51-17.79,10.38-27.39,14.15.1,7.72,0,15.16.07,22.88a62.78,62.78,0,0,1-.52,11.14c-.85,5.15-3,10-4.49,15a66,66,0,0,0-2.86,18.66q-14.11,1.21-28.29,1.32c-5.56,0-11.58-.21-15.94-3.67,6.33-11.56,12.79-23.49,14.33-36.58,1.59-13.5-2.17-27.34.43-40.68.67-3.48,1.94-7.1,4.8-9.18,4.27-3.11,10.16-1.65,15.33-.61a73.33,73.33,0,0,0,19,1.24,15.85,15.85,0,0,0,6.07-1.31c2.37-1.19,4.07-3.35,5.77-5.38C435.7,172.51,441.34,166.22,448.09,161.41Z" transform="translate(-17.19 -0.09)" fill="#68e1fd"></path><path d="M448.09,161.41c1.29,2.65,3.51,4.71,5.68,6.71l7.47,6.87c-6,5.34-11,11.84-17.23,16.93-8,6.51-17.79,10.38-27.39,14.15.1,7.72,0,15.16.07,22.88a62.78,62.78,0,0,1-.52,11.14c-.85,5.15-3,10-4.49,15a66,66,0,0,0-2.86,18.66q-14.11,1.21-28.29,1.32c-5.56,0-11.58-.21-15.94-3.67,6.33-11.56,12.79-23.49,14.33-36.58,1.59-13.5-2.17-27.34.43-40.68.67-3.48,1.94-7.1,4.8-9.18,4.27-3.11,10.16-1.65,15.33-.61a73.33,73.33,0,0,0,19,1.24,15.85,15.85,0,0,0,6.07-1.31c2.37-1.19,4.07-3.35,5.77-5.38C435.7,172.51,441.34,166.22,448.09,161.41Z" transform="translate(-17.19 -0.09)" fill="url(#linear-gradient-17)"></path><path d="M378.62,211.39a12.89,12.89,0,0,0,11.09-8.23c.82-2.25,1-4.77,2.36-6.75,1.24-1.82,3.26-2.92,5.2-3.95a48.73,48.73,0,0,1,7.15-3.31,20,20,0,0,0,4.09-1.58,1.11,1.11,0,0,0,.57-.64,1,1,0,0,0-.49-.9,7.54,7.54,0,0,0-3.45-1.2c-3.56-.6-7.23-1.2-10.74-.38a25.42,25.42,0,0,0-8.16,4.08,17.2,17.2,0,0,0-5.44,5c-1.68,2.77-1.75,6.12-2.37,9.21C378.24,203.67,378,211.42,378.62,211.39Z" transform="translate(-17.19 -0.09)" fill="url(#linear-gradient-18)"></path><path d="M365.12,185.57a2.81,2.81,0,0,0-1.73,3.55,51.76,51.76,0,0,0,6.47,18.43,1.66,1.66,0,0,0,2.13,1,15.52,15.52,0,0,0,8.66-4.56c1.92-2,3.18-4.59,4.79-6.89a29.78,29.78,0,0,1,11.71-9.59c4.57-2.25,4.66-5.69-.43-7.89C387.52,175.66,373.12,180.83,365.12,185.57Z" transform="translate(-17.19 -0.09)" fill="#68e1fd"></path><path d="M365.12,185.57a2.81,2.81,0,0,0-1.73,3.55,51.76,51.76,0,0,0,6.47,18.43,1.66,1.66,0,0,0,2.13,1,15.52,15.52,0,0,0,8.66-4.56c1.92-2,3.18-4.59,4.79-6.89a29.78,29.78,0,0,1,11.71-9.59c4.57-2.25,4.66-5.69-.43-7.89C387.52,175.66,373.12,180.83,365.12,185.57Z" transform="translate(-17.19 -0.09)" fill="url(#linear-gradient-19)"></path><path d="M512.29,302.85A214.86,214.86,0,0,1,507.08,331,126.29,126.29,0,0,1,478,383.26c-15.2,10-39.87,20.32-77.82,22.48-69.36,4-192.73,4.38-253.82-11.59-8-9-13.79-19.9-19-30.83-6.81-14.21-9.67-20.09-13-29.45,17.16,10.62,77.9,41.56,193.08,32.39,138.37-11,169.27-18.21,195.74-56.24Z" transform="translate(-17.19 -0.09)" fill="url(#linear-gradient-20)"></path><path d="M605.73,458.41c-22.13,15.47-49.42,25.54-76,30.67C443.24,505.76,353.87,487,265.94,493c-37,2.5-74,9.47-111,6.89-18.4-1.29-46.48-11-71-26.55C61.43,459,41.85,439.77,35.5,417.45c-.58-2.16-1.09-4.35-1.45-6.54,0,0,44.1-22.25,88.75-26.28,16.21-1.49,32.47-.55,46.72,4.7,2.55.94,5.13,1.88,7.72,2.86,39.16,14.53,80.64,30.31,120.31,18.56,16.64-4.93,31.57-14.49,47.82-20.68a127.73,127.73,0,0,1,97.79,3.29c8.34,3.84,16.61,8.7,25.77,9.21,17.12.94,30.86-13,45.82-21.31,1.69-.94,3.41-1.8,5.13-2.58,17.12-7.95,35.68-9,54.56-6.15,24.79,3.76,50.09,14.33,73.08,25.22C648.38,398.18,627,443.65,605.73,458.41Z" transform="translate(-17.19 -0.09)" fill="#68e1fd" opacity="0.53" style="isolation: isolate;"></path><path d="M647.52,397.75c.86.43-20.56,45.9-41.79,60.66-40.57,9.64-83,8.35-124.85,8.74-130,1.37-260.33,20.24-389.69,7-2.38-.24-4.81-.51-7.24-.78C61.43,459,41.85,439.77,35.5,417.45a55.7,55.7,0,0,1-5.95-9.64c-6.85-14.06-10.42-31.25-11.75-49a81.9,81.9,0,0,1,41.36-2.47c22.64,4.62,42.65,18.68,63.64,28.32,11.51,5.29,23.3,9.2,36,9.52a77.14,77.14,0,0,0,18.45-2c14.53-3.17,28.63-9.64,42.77-14.69,57.21-20.44,119.64-18.6,180.38-16.49,38.62,1.33,77.94,2.82,114.36,15.79l5.13,1.88c10.89,4,22.13,8.1,33.37,5.75,8.19-1.68,14.84-6.38,21.19-11.9,6.89-6.07,13.35-13,20.87-18.14,15-10.14,46.57-15.5,60.79-.5a38.23,38.23,0,0,1,6,8.85C659.19,375.23,654.65,387.25,647.52,397.75Z" transform="translate(-17.19 -0.09)" fill="#68e1fd" opacity="0.53" style="isolation: isolate;"></path><path d="M210.12,270.67a4.5,4.5,0,0,0-1.86-.08,1.76,1.76,0,0,0-1.34,1.18c-.23,1,.62,1.8,1.38,2.41l1.77,1.44a5,5,0,0,0,1.59,1,1.66,1.66,0,0,0,1.74-.36,2,2,0,0,0,.43-1.06,4.15,4.15,0,0,0-1-3.44,3.05,3.05,0,0,0-3.39-.73" transform="translate(-17.19 -0.09)" fill="#68e1fd"></path><path d="M210.12,270.67a4.5,4.5,0,0,0-1.86-.08,1.76,1.76,0,0,0-1.34,1.18c-.23,1,.62,1.8,1.38,2.41l1.77,1.44a5,5,0,0,0,1.59,1,1.66,1.66,0,0,0,1.74-.36,2,2,0,0,0,.43-1.06,4.15,4.15,0,0,0-1-3.44,3.05,3.05,0,0,0-3.39-.73" transform="translate(-17.19 -0.09)" fill="url(#linear-gradient-21)"></path><circle cx="180.91" cy="269.74" r="1.59" fill="url(#linear-gradient-22)"></circle><path d="M168.21,308.12a25.86,25.86,0,0,0,.68,6.33c.5,1.87,1.39,3.63,2,5.49s.85,3.87,1.41,5.78c.81,2.74,1.09,5.37,6.29,7.72-9.2-2.31-10.43-1.78-10.28-8.21C168.42,319.52,168.33,313.83,168.21,308.12Z" transform="translate(-17.19 -0.09)" fill="url(#linear-gradient-23)"></path></svg>